<svg width="21" height="20" viewBox="0 0 21 20" fill="none" xmlns="http://www.w3.org/2000/svg">
<path d="M18.9985 0H1.11017C0.496852 0 0 0.494167 0 1.10417V18.8967C0 19.5058 0.496852 20 1.11017 20H10.7414V12.255H8.12056V9.23667H10.7414V7.01083C10.7414 4.4275 12.3275 3.02083 14.645 3.02083C15.7552 3.02083 16.7086 3.10333 16.9868 3.14V5.84L15.3798 5.84083C14.1197 5.84083 13.8758 6.43667 13.8758 7.31V9.2375H16.8813L16.49 12.2558H13.8758V20H19.0002C19.6118 20 20.1087 19.5058 20.1087 18.8958V1.10417C20.1087 0.494167 19.6118 0 18.9985 0Z" fill="white"/>
</svg>
