<svg width="21" height="20" viewBox="0 0 21 20" fill="none" xmlns="http://www.w3.org/2000/svg">
<path fill-rule="evenodd" clip-rule="evenodd" d="M10.1123 0C7.38174 0 7.03989 0.0116667 5.96743 0.06C2.31602 0.226667 0.28672 2.24167 0.119147 5.87667C0.0697135 6.94417 0.0579834 7.28417 0.0579834 10C0.0579834 12.7158 0.0697135 13.0567 0.118309 14.1233C0.285882 17.755 2.31183 19.7733 5.96659 19.94C7.03989 19.9883 7.38174 20 10.1123 20C12.8429 20 13.1856 19.9883 14.2581 19.94C17.9061 19.7733 19.9405 17.7583 20.1055 14.1233C20.1549 13.0567 20.1667 12.7158 20.1667 10C20.1667 7.28417 20.1549 6.94417 20.1064 5.8775C19.9421 2.24917 17.9137 0.2275 14.2589 0.0608333C13.1856 0.0116667 12.8429 0 10.1123 0ZM10.1123 1.8025C12.7968 1.8025 13.1152 1.8125 14.176 1.86083C16.9007 1.98417 18.1734 3.27 18.2974 5.96C18.346 7.01417 18.3552 7.33083 18.3552 10.0008C18.3552 12.6717 18.3452 12.9875 18.2974 14.0417C18.1726 16.7292 16.9032 18.0175 14.176 18.1408C13.1152 18.1892 12.7985 18.1992 10.1123 18.1992C7.42782 18.1992 7.10943 18.1892 6.04953 18.1408C3.3181 18.0167 2.05209 16.725 1.92809 14.0408C1.87949 12.9867 1.86944 12.6708 1.86944 10C1.86944 7.33 1.88033 7.01417 1.92809 5.95917C2.05293 3.27 3.32229 1.98333 6.04953 1.86C7.11027 1.8125 7.42782 1.8025 10.1123 1.8025ZM4.94942 10C4.94942 7.16417 7.26108 4.865 10.1123 4.865C12.9636 4.865 15.2752 7.16417 15.2752 10C15.2752 12.8367 12.9636 15.1358 10.1123 15.1358C7.26108 15.1358 4.94942 12.8358 4.94942 10ZM10.1123 13.3333C8.26149 13.3333 6.76088 11.8417 6.76088 10C6.76088 8.15917 8.26149 6.66667 10.1123 6.66667C11.9632 6.66667 13.4638 8.15917 13.4638 10C13.4638 11.8417 11.9632 13.3333 10.1123 13.3333ZM14.2723 4.6625C14.2723 4 14.8127 3.4625 15.4797 3.4625C16.1458 3.4625 16.6854 4 16.6854 4.6625C16.6854 5.325 16.1458 5.8625 15.4797 5.8625C14.8127 5.8625 14.2723 5.325 14.2723 4.6625Z" fill="white"/>
</svg>
