<svg width="170" height="16" viewBox="0 0 170 16" fill="none" xmlns="http://www.w3.org/2000/svg">
<path fill-rule="evenodd" clip-rule="evenodd" d="M70.4837 15.3622C69.4475 15.7874 68.3351 16 67.1467 16C65.9438 16 64.8279 15.7874 63.7989 15.3622C62.7699 14.9369 61.875 14.3568 61.1141 13.6216C60.3532 12.8865 59.7554 12.036 59.3206 11.0703C58.8859 10.1045 58.6685 9.08108 58.6685 8C58.6685 6.91892 58.8859 5.8955 59.3206 4.92973C59.7554 3.96396 60.3532 3.11351 61.1141 2.37838C61.875 1.64324 62.7699 1.06306 63.7989 0.637838C64.8279 0.212613 65.9438 0 67.1467 0C68.3351 0 69.4475 0.212613 70.4837 0.637838C71.5199 1.06306 72.4185 1.64324 73.1793 2.37838C73.9402 3.11351 74.538 3.96396 74.9728 4.92973C75.4076 5.8955 75.625 6.91892 75.625 8C75.625 9.08108 75.4076 10.1045 74.9728 11.0703C74.538 12.036 73.9402 12.8865 73.1793 13.6216C72.4185 14.3568 71.5199 14.9369 70.4837 15.3622ZM31.2772 11.027V15.5676H27.1467V0.432432H33.9946C34.8351 0.432432 35.6033 0.565766 36.2989 0.832432C36.9946 1.0991 37.5888 1.47027 38.0815 1.94595C38.5743 2.42162 38.9583 2.98378 39.2337 3.63243C39.509 4.28108 39.6467 4.98018 39.6467 5.72973C39.6467 6.49369 39.509 7.1964 39.2337 7.83784C38.9583 8.47928 38.5743 9.03784 38.0815 9.51351C37.5888 9.98919 36.9946 10.3604 36.2989 10.627C35.6033 10.8937 34.8351 11.027 33.9946 11.027H31.2772ZM31.2772 7.35135H33.7772C34.2699 7.35135 34.683 7.18919 35.0163 6.86486C35.3496 6.54054 35.5163 6.16216 35.5163 5.72973C35.5163 5.2973 35.3496 4.91892 35.0163 4.59459C34.683 4.27027 34.2699 4.10811 33.7772 4.10811H31.2772V7.35135ZM46.3859 15.5676V9.72973H51.9293V15.5676H56.0598V0.432432H51.9293V6.05405H46.3859V0.432432H42.2554V15.5676H46.3859ZM67.1467 12.3243C66.5525 12.3243 65.9946 12.2162 65.4728 12C64.9511 11.7838 64.5018 11.4811 64.125 11.0919C63.7482 10.7027 63.4511 10.245 63.2337 9.71892C63.0163 9.19279 62.9076 8.61982 62.9076 8C62.9076 7.38018 63.0163 6.80721 63.2337 6.28108C63.4511 5.75495 63.7482 5.2973 64.125 4.90811C64.5018 4.51892 64.9511 4.21622 65.4728 4C65.9946 3.78378 66.5525 3.67568 67.1467 3.67568C67.7409 3.67568 68.2953 3.78378 68.8098 4C69.3243 4.21622 69.7735 4.51892 70.1576 4.90811C70.5417 5.2973 70.8424 5.75495 71.0598 6.28108C71.2772 6.80721 71.3859 7.38018 71.3859 8C71.3859 8.61982 71.2772 9.19279 71.0598 9.71892C70.8424 10.245 70.5417 10.7027 70.1576 11.0919C69.7735 11.4811 69.3243 11.7838 68.8098 12C68.2953 12.2162 67.7409 12.3243 67.1467 12.3243ZM85.2989 4.10811V15.5676H81.1685V4.10811H76.9293V0.432432H89.538V4.10811H85.2989ZM99.3206 16C100.509 16 101.621 15.7874 102.658 15.3622C103.694 14.9369 104.592 14.3568 105.353 13.6216C106.114 12.8865 106.712 12.036 107.147 11.0703C107.582 10.1045 107.799 9.08108 107.799 8C107.799 6.91892 107.582 5.8955 107.147 4.92973C106.712 3.96396 106.114 3.11351 105.353 2.37838C104.592 1.64324 103.694 1.06306 102.658 0.637838C101.621 0.212613 100.509 0 99.3206 0C98.1177 0 97.0018 0.212613 95.9728 0.637838C94.9438 1.06306 94.0489 1.64324 93.288 2.37838C92.5272 3.11351 91.9293 3.96396 91.4946 4.92973C91.0598 5.8955 90.8424 6.91892 90.8424 8C90.8424 9.08108 91.0598 10.1045 91.4946 11.0703C91.9293 12.036 92.5272 12.8865 93.288 13.6216C94.0489 14.3568 94.9438 14.9369 95.9728 15.3622C97.0018 15.7874 98.1177 16 99.3206 16ZM97.6467 12C98.1685 12.2162 98.7264 12.3243 99.3206 12.3243C99.9148 12.3243 100.469 12.2162 100.984 12C101.498 11.7838 101.947 11.4811 102.332 11.0919C102.716 10.7027 103.016 10.245 103.234 9.71892C103.451 9.19279 103.56 8.61982 103.56 8C103.56 7.38018 103.451 6.80721 103.234 6.28108C103.016 5.75495 102.716 5.2973 102.332 4.90811C101.947 4.51892 101.498 4.21622 100.984 4C100.469 3.78378 99.9148 3.67568 99.3206 3.67568C98.7264 3.67568 98.1685 3.78378 97.6467 4C97.125 4.21622 96.6757 4.51892 96.2989 4.90811C95.9221 5.2973 95.625 5.75495 95.4076 6.28108C95.1902 6.80721 95.0815 7.38018 95.0815 8C95.0815 8.61982 95.1902 9.19279 95.4076 9.71892C95.625 10.245 95.9221 10.7027 96.2989 11.0919C96.6757 11.4811 97.125 11.7838 97.6467 12ZM115.19 16C116.147 16 117.002 15.8667 117.755 15.6C118.509 15.3333 119.147 14.973 119.668 14.5189C120.19 14.0649 120.589 13.5387 120.864 12.9405C121.139 12.3423 121.277 11.7045 121.277 11.027C121.277 10.1477 121.103 9.42703 120.755 8.86487C120.408 8.3027 119.973 7.84865 119.451 7.5027C118.929 7.15676 118.36 6.88288 117.745 6.68108C117.129 6.47928 116.56 6.29189 116.038 6.11892C115.516 5.94595 115.082 5.76216 114.734 5.56757C114.386 5.37297 114.212 5.1027 114.212 4.75676C114.212 4.42523 114.36 4.12613 114.658 3.85946C114.955 3.59279 115.35 3.45946 115.842 3.45946C116.219 3.45946 116.56 3.52072 116.864 3.64324C117.168 3.76577 117.429 3.90631 117.647 4.06486C117.908 4.23784 118.139 4.43243 118.342 4.64865L120.734 2.16216C120.386 1.75856 119.958 1.3982 119.451 1.08108C119.016 0.807207 118.466 0.558559 117.799 0.335135C117.132 0.111712 116.335 0 115.408 0C114.538 0 113.748 0.12973 113.038 0.389189C112.328 0.648649 111.723 0.994595 111.223 1.42703C110.723 1.85946 110.335 2.35676 110.06 2.91892C109.784 3.48108 109.647 4.05766 109.647 4.64865C109.647 5.52793 109.821 6.24865 110.168 6.81081C110.516 7.37297 110.951 7.82703 111.473 8.17297C111.995 8.51892 112.563 8.79279 113.179 8.99459C113.795 9.1964 114.364 9.38378 114.886 9.55676C115.408 9.72973 115.842 9.91351 116.19 10.1081C116.538 10.3027 116.712 10.573 116.712 10.9189C116.712 11.3514 116.538 11.7297 116.19 12.0541C115.842 12.3784 115.364 12.5405 114.755 12.5405C114.263 12.5405 113.817 12.4577 113.418 12.2919C113.02 12.1261 112.676 11.9423 112.386 11.7405C112.053 11.4955 111.755 11.2216 111.495 10.9189L109.103 13.4054C109.538 13.8955 110.053 14.3279 110.647 14.7027C111.154 15.0342 111.784 15.3333 112.538 15.6C113.292 15.8667 114.176 16 115.19 16ZM127.799 7.13514V15.5676H123.668V0.432432H127.255L133.777 8.86486V0.432432H137.908V15.5676H134.342L127.799 7.13514ZM144.103 15.5676L145.19 12.3243H150.19L151.277 15.5676H155.734L149.973 0.432432H145.408L139.647 15.5676H144.103ZM147.69 4.64865L146.277 9.08108H149.103L147.69 4.64865ZM161.603 15.5676V11.027H164.321C165.161 11.027 165.929 10.8937 166.625 10.627C167.321 10.3604 167.915 9.98919 168.408 9.51351C168.9 9.03784 169.284 8.47928 169.56 7.83784C169.835 7.1964 169.973 6.49369 169.973 5.72973C169.973 4.98018 169.835 4.28108 169.56 3.63243C169.284 2.98378 168.9 2.42162 168.408 1.94595C167.915 1.47027 167.321 1.0991 166.625 0.832432C165.929 0.565766 165.161 0.432432 164.321 0.432432H157.473V15.5676H161.603ZM161.603 7.35135H164.103C164.596 7.35135 165.009 7.18919 165.342 6.86486C165.676 6.54054 165.842 6.16216 165.842 5.72973C165.842 5.2973 165.676 4.91892 165.342 4.59459C165.009 4.27027 164.596 4.10811 164.103 4.10811H161.603V7.35135Z" fill="white"/>
<path fill-rule="evenodd" clip-rule="evenodd" d="M0 16L9.55163 0L19.1033 16H0Z" fill="url(#paint0_linear_0_4306)"/>
<defs>
<linearGradient id="paint0_linear_0_4306" x1="9.55163" y1="20" x2="16.6775" y2="2.98414" gradientUnits="userSpaceOnUse">
<stop stop-color="#FFC593"/>
<stop offset="0.519452" stop-color="#BC7198"/>
<stop offset="1" stop-color="#5A77FF"/>
</linearGradient>
</defs>
</svg>
