<svg width="21" height="20" viewBox="0 0 21 20" fill="none" xmlns="http://www.w3.org/2000/svg">
<path d="M10.5978 0C5.04529 0 0.543457 4.47667 0.543457 10C0.543457 14.2367 3.19362 17.855 6.93383 19.3117C6.84586 18.5208 6.76626 17.3075 6.96902 16.4442C7.15168 15.6633 8.1479 11.4733 8.1479 11.4733C8.1479 11.4733 7.8471 10.8742 7.8471 9.98833C7.8471 8.59833 8.65732 7.56 9.6661 7.56C10.5232 7.56 10.938 8.20083 10.938 8.96833C10.938 9.82583 10.3892 11.1083 10.1051 12.2975C9.86803 13.2925 10.607 14.105 11.594 14.105C13.3812 14.105 14.7544 12.2308 14.7544 9.52583C14.7544 7.13167 13.0251 5.4575 10.5551 5.4575C7.69461 5.4575 6.01554 7.59167 6.01554 9.79667C6.01554 10.6558 6.34817 11.5783 6.76375 12.0783C6.84586 12.1775 6.85759 12.265 6.83329 12.3658L6.55428 13.4992C6.50987 13.6825 6.40849 13.7217 6.21746 13.6333C4.9615 13.0517 4.17643 11.2258 4.17643 9.75917C4.17643 6.605 6.48055 3.7075 10.8198 3.7075C14.3079 3.7075 17.0183 6.18 17.0183 9.48333C17.0183 12.93 14.834 15.7033 11.801 15.7033C10.7821 15.7033 9.82446 15.1775 9.49685 14.555L8.87013 16.9325C8.64307 17.8017 8.03059 18.8908 7.62004 19.5542C8.5618 19.8433 9.56137 20 10.5978 20C16.1503 20 20.6522 15.5225 20.6522 10C20.6522 4.47667 16.1503 0 10.5978 0Z" fill="white"/>
</svg>
