<svg width="21" height="18" viewBox="0 0 21 18" fill="none" xmlns="http://www.w3.org/2000/svg">
<path d="M20.1377 2.79746C19.3979 3.12412 18.6027 3.34412 17.7682 3.44329C18.6203 2.93579 19.2747 2.13162 19.5822 1.17329C18.7854 1.64329 17.9023 1.98496 16.9622 2.16912C16.2106 1.37162 15.1373 0.873291 13.9509 0.873291C11.2873 0.873291 9.3301 3.34496 9.93169 5.91079C6.50399 5.73996 3.46423 4.10662 1.42906 1.62412C0.348217 3.46829 0.86853 5.88079 2.70512 7.10246C2.02981 7.08079 1.39303 6.89662 0.837529 6.58912C0.792284 8.48996 2.16219 10.2683 4.14625 10.6641C3.56561 10.8208 2.92967 10.8575 2.28284 10.7341C2.80734 12.3641 4.33058 13.55 6.13701 13.5833C4.40263 14.9358 2.21749 15.54 0.0289917 15.2833C1.85469 16.4475 4.02392 17.1266 6.35318 17.1266C14.0129 17.1266 18.3405 10.6925 18.0791 4.92162C18.8851 4.34246 19.5847 3.61996 20.1377 2.79746Z" fill="white"/>
</svg>
