<svg width="21" height="20" viewBox="0 0 21 20" fill="none" xmlns="http://www.w3.org/2000/svg">
<path fill-rule="evenodd" clip-rule="evenodd" d="M10.5688 0C5.0163 0 0.514465 4.4775 0.514465 10C0.514465 15.5225 5.0163 20 10.5688 20C16.1213 20 20.6232 15.5225 20.6232 10C20.6232 4.4775 16.1213 0 10.5688 0ZM14.2898 14.0767C12.5286 14.1967 8.6057 14.1967 6.84703 14.0767C4.94005 13.9467 4.71802 13.0183 4.70378 10C4.71802 6.97583 4.94257 6.05333 6.84703 5.92333C8.6057 5.80333 12.5294 5.80333 14.2898 5.92333C16.1976 6.05333 16.4188 6.98167 16.4338 10C16.4188 13.0242 16.1951 13.9467 14.2898 14.0767ZM13.0129 9.99667L8.89309 8.04833V11.9517L13.0129 9.99667Z" fill="white"/>
</svg>
